<svg width="52" height="40" viewBox="0 0 52 40" fill="none" xmlns="http://www.w3.org/2000/svg">
<path fill-rule="evenodd" clip-rule="evenodd" d="M40 0C35.0294 0 31 4.02944 31 9C31 13.9706 35.0294 18 40 18H43C47.9706 18 52 13.9706 52 9C52 4.02944 47.9706 0 43 0H40ZM31.1304 15.8921C30.9001 15.6028 30.5511 15.4344 30.1818 15.4344H8.9579L7.8561 9.86594C7.75953 9.37826 7.37491 8.99888 6.8856 8.9092L2.03718 8.02032C1.37743 7.8987 0.747123 8.33551 0.626312 8.99407C0.5055 9.65263 0.941436 10.2841 1.60006 10.4049L5.63798 11.1451L9.19509 29.1242C9.3074 29.6919 9.80559 30.1012 10.3841 30.1012H27.3536C27.918 30.1012 28.4073 29.7121 28.5346 29.1614L31.3628 16.9192C31.446 16.5592 31.3604 16.181 31.1304 15.8921ZM26.3895 27.677H11.3796L9.43746 17.859H28.6573L26.3895 27.677ZM8.12158 35.9603C8.12158 33.7324 9.93408 31.9199 12.1619 31.9199C14.3897 31.9199 16.2023 33.7324 16.2023 35.9603C16.2023 38.1881 14.3898 40.0006 12.1619 40.0006C9.93408 40.0006 8.12158 38.1881 8.12158 35.9603ZM10.5458 35.9603C10.5458 36.8516 11.2706 37.5764 12.1619 37.5764C13.0533 37.5764 13.7781 36.8515 13.7781 35.9603C13.7781 35.069 13.0528 34.3442 12.1619 34.3442C11.2706 34.3442 10.5458 35.069 10.5458 35.9603ZM20.0808 35.9603C20.0808 33.7324 21.8933 31.9199 24.1212 31.9199C26.349 31.9199 28.1615 33.7324 28.1615 35.9603C28.1615 38.1881 26.349 40.0006 24.1212 40.0006C21.8933 40.0006 20.0808 38.1881 20.0808 35.9603ZM22.5051 35.9603C22.5051 36.8516 23.2299 37.5764 24.1212 37.5764C25.0125 37.5764 25.7373 36.8515 25.7373 35.9603C25.7373 35.069 25.0125 34.3442 24.1212 34.3442C23.2299 34.3442 22.5051 35.069 22.5051 35.9603Z" fill="white"/>
</svg>
